<svg xmlns="http://www.w3.org/2000/svg" xmlns:xlink="http://www.w3.org/1999/xlink" version="1.1" x="0px" y="0px" viewBox="0 0 100 125" enable-background="new 0 0 100 100" xml:space="preserve"><circle cx="50" cy="11.705" r="11.705"/><path d="M66.789,57.198c2.449,0,4.055-2.856,3.569-6.347l-2.441-17.534c-0.486-3.491-3.768-6.347-7.292-6.347H39.374  c-3.524,0-6.806,2.856-7.292,6.347l-2.44,17.534c-0.486,3.491,1.12,6.347,3.569,6.347s4.667,2.876,4.929,6.391l2.242,30.021  c0.262,3.515,3.361,6.391,6.885,6.391h5.467c3.524,0,6.623-2.876,6.885-6.391l2.24-30.021C62.121,60.074,64.34,57.198,66.789,57.198  z"/><text x="0" y="115" fill="#000000" font-size="5px" font-weight="bold" font-family="'Helvetica Neue', Helvetica, Arial-Unicode, Arial, Sans-serif">Created by Lisa Staudinger</text><text x="0" y="120" fill="#000000" font-size="5px" font-weight="bold" font-family="'Helvetica Neue', Helvetica, Arial-Unicode, Arial, Sans-serif">from the Noun Project</text></svg>